<svg xmlns="http://www.w3.org/2000/svg" width="24" height="24" class="ipc-icon ipc-icon--popularity-down sc-5f7fb5b4-4 hNmaod" id="iconContext-popularity-down" viewBox="0 0 24 24" fill="#fb3c3c" role="presentation"><path d="M12 2C6.5 2 2 6.5 2 12s4.5 10 10 10 10-4.5 10-10S17.5 2 12 2zm0 18c-4.4 0-8-3.6-8-8 0-1.4.4-2.8 1-3.9L8.4 12c.4.4 1 .4 1.4 0l1.4-1.5 2.4 2.6-1.4 1.4c-.3.3-.1.9.4.9h4.3c.3 0 .5-.2.5-.5v-4.3c0-.4-.5-.7-.9-.3L15 11.6l-3.1-3.3c-.4-.4-1-.4-1.4 0L9.2 9.8 6.3 6.4C7.7 4.9 9.7 4 12 4c4.4 0 8 3.6 8 8s-3.6 8-8 8z"></path></svg>